<svg id="svg" version="1.1" xmlns="http://www.w3.org/2000/svg" xmlns:xlink="http://www.w3.org/1999/xlink" width="400" height="402.020202020202" viewBox="0, 0, 400,402.020202020202"><g id="svgg"><path id="path0" d="M156.898 18.962 C 144.123 19.627,128.034 22.887,119.520 26.537 C 118.881 26.811,118.176 27.072,117.954 27.117 C 117.516 27.205,116.308 27.736,112.689 29.430 C 111.405 30.031,110.352 30.446,110.350 30.350 C 110.348 30.255,110.262 30.304,110.160 30.460 C 110.058 30.616,109.158 31.154,108.160 31.655 C 79.077 46.256,59.444 77.343,56.303 113.763 C 56.148 115.568,55.939 117.670,55.840 118.434 C 54.764 126.746,56.389 145.632,59.122 156.562 C 59.695 158.852,60.181 160.841,60.202 160.982 C 60.224 161.122,60.308 161.351,60.390 161.490 C 60.547 161.757,62.124 166.466,62.232 166.990 C 62.267 167.160,62.534 167.833,62.826 168.487 C 63.118 169.141,63.391 169.880,63.433 170.128 C 63.476 170.377,63.574 170.638,63.652 170.707 C 63.859 170.891,64.958 173.686,64.903 173.888 C 64.877 173.983,64.951 174.129,65.067 174.214 C 65.183 174.299,65.983 175.789,66.844 177.525 C 67.706 179.261,69.034 181.733,69.795 183.018 C 70.557 184.302,71.102 185.355,71.006 185.357 C 70.911 185.360,70.956 185.445,71.106 185.547 C 71.256 185.649,71.987 186.641,72.730 187.753 C 74.475 190.363,77.098 193.860,78.958 196.056 C 79.767 197.011,80.542 197.948,80.680 198.138 C 81.179 198.825,85.018 202.704,87.462 204.992 C 98.296 215.132,112.223 222.832,127.273 227.004 C 128.870 227.446,130.347 227.873,130.556 227.953 C 130.764 228.032,131.218 228.137,131.566 228.186 C 131.913 228.236,133.504 228.564,135.101 228.916 C 136.698 229.268,138.403 229.606,138.889 229.668 C 139.375 229.730,140.966 229.953,142.424 230.163 C 143.883 230.374,145.161 230.548,145.265 230.551 C 145.577 230.559,145.497 335.590,145.183 338.782 C 143.934 351.478,139.808 360.537,133.270 364.939 L 131.061 366.427 131.061 373.469 L 131.061 380.510 133.270 380.697 C 134.485 380.800,152.809 380.762,173.990 380.613 C 236.300 380.174,252.576 380.612,266.414 383.097 C 269.539 383.658,272.264 384.140,272.469 384.167 C 272.832 384.216,273.396 381.200,273.855 376.768 C 273.934 376.004,275.743 362.367,277.874 346.465 C 280.005 330.562,281.722 317.518,281.689 317.477 C 281.656 317.437,279.894 316.780,277.774 316.017 C 275.653 315.255,273.735 314.520,273.512 314.384 C 273.243 314.220,276.521 314.145,283.207 314.160 C 288.763 314.172,297.598 314.173,302.841 314.162 L 312.374 314.141 312.374 307.645 L 312.374 301.149 310.748 299.501 C 306.073 294.764,305.198 284.890,308.457 273.645 C 309.194 271.100,332.083 205.744,332.302 205.556 C 332.383 205.486,332.463 205.259,332.479 205.051 C 332.521 204.509,349.790 155.328,351.322 151.389 C 354.852 142.308,359.265 134.928,364.011 130.166 C 365.915 128.256,370.161 125.168,370.884 125.168 C 371.064 125.168,371.212 125.085,371.212 124.983 C 371.212 124.881,371.610 124.563,372.096 124.276 L 372.980 123.754 372.980 116.549 L 372.980 109.343 335.227 109.343 L 297.475 109.343 297.475 115.681 L 297.475 122.018 298.482 123.162 C 301.341 126.411,301.888 130.588,300.408 137.889 C 299.883 140.481,282.338 193.855,280.739 197.727 C 280.595 198.074,280.449 198.497,280.414 198.666 C 280.239 199.507,278.941 203.197,278.723 203.472 C 278.586 203.646,278.536 203.788,278.612 203.788 C 278.689 203.788,278.128 205.634,277.366 207.891 C 276.603 210.148,275.939 212.180,275.889 212.405 C 275.839 212.631,275.455 213.938,275.035 215.309 C 274.614 216.681,273.691 219.778,272.983 222.192 C 270.632 230.208,270.702 230.233,267.802 220.328 C 266.867 217.134,265.706 213.459,265.222 212.161 C 264.738 210.864,264.314 209.671,264.280 209.510 C 264.246 209.349,264.147 209.047,264.060 208.838 C 263.850 208.334,261.700 202.216,261.619 201.894 C 261.584 201.755,261.470 201.414,261.365 201.136 C 260.629 199.186,254.322 180.813,254.253 180.419 C 254.205 180.147,254.104 179.867,254.027 179.798 C 253.780 179.573,240.173 140.072,239.849 138.636 C 238.675 133.439,239.881 126.791,242.573 123.617 L 243.939 122.007 243.939 115.675 L 243.939 109.343 208.523 109.343 C 165.323 109.343,159.856 109.080,148.059 106.435 C 147.376 106.282,147.753 103.351,144.821 131.566 C 143.500 144.274,142.198 156.604,141.927 158.965 C 141.618 161.655,141.527 163.290,141.681 163.343 C 141.817 163.390,142.071 163.561,142.245 163.722 C 142.420 163.883,142.700 164.043,142.869 164.077 C 143.038 164.111,145.450 165.162,148.230 166.413 C 151.010 167.664,153.369 168.687,153.473 168.687 C 153.577 168.687,155.139 167.181,156.944 165.339 C 163.690 158.458,170.852 155.175,182.399 153.671 C 186.734 153.106,186.422 153.027,187.093 154.861 C 187.411 155.729,189.248 160.825,191.177 166.186 C 193.105 171.547,194.747 176.100,194.826 176.304 C 195.333 177.626,182.384 182.532,174.642 183.952 C 134.081 191.389,109.276 163.351,113.663 115.025 C 116.887 79.509,139.144 61.054,173.697 65.247 C 191.002 67.347,204.128 74.575,216.297 88.702 L 217.551 90.157 223.359 86.965 C 226.553 85.209,229.187 83.758,229.211 83.740 C 229.236 83.722,228.248 72.719,227.016 59.289 C 225.785 45.860,224.778 34.668,224.780 34.418 C 224.786 33.378,224.178 28.397,224.027 28.251 C 223.614 27.852,215.954 25.576,210.227 24.150 C 205.317 22.928,194.360 20.755,192.677 20.669 C 192.468 20.659,191.105 20.499,189.646 20.315 C 179.100 18.980,166.529 18.461,156.898 18.962 M175.126 27.531 C 188.243 28.249,200.821 30.415,213.763 34.184 L 215.783 34.772 215.982 35.884 C 216.456 38.520,219.943 78.643,219.718 78.867 C 219.569 79.017,218.411 78.034,216.614 76.232 C 203.518 63.104,187.180 56.568,166.376 56.135 C 128.615 55.348,106.177 78.669,104.558 120.383 C 102.615 170.454,130.377 199.452,174.116 193.037 C 183.598 191.646,195.025 187.319,203.220 182.015 C 205.790 180.352,205.777 180.378,205.037 178.501 C 204.752 177.777,202.714 172.176,200.510 166.054 C 194.400 149.090,193.302 146.342,191.985 144.715 L 191.490 144.104 187.222 144.407 C 172.215 145.472,160.934 149.476,153.368 156.421 C 151.420 158.209,151.015 158.396,151.002 157.513 C 150.993 156.868,155.100 116.834,155.188 116.717 C 155.219 116.675,156.536 116.816,158.115 117.029 C 164.717 117.923,167.896 118.002,201.578 118.110 C 223.660 118.181,235.101 118.304,235.101 118.470 C 235.101 118.609,234.750 119.233,234.320 119.857 C 231.536 123.904,230.155 130.558,230.789 136.882 C 231.267 141.658,232.863 146.806,240.608 168.561 C 242.140 172.866,245.115 181.218,247.218 187.121 C 259.971 222.923,266.242 244.607,269.420 263.889 C 270.333 269.424,270.747 269.612,271.637 264.899 C 275.994 241.835,279.542 229.344,294.083 185.859 C 300.283 167.317,306.077 149.976,306.958 147.323 C 310.838 135.645,310.826 125.918,306.922 119.258 L 306.292 118.182 335.217 118.182 C 358.192 118.182,364.140 118.247,364.133 118.497 C 364.129 118.671,363.362 119.321,362.429 119.941 C 354.590 125.152,347.101 136.807,341.494 152.525 C 332.177 178.645,300.105 270.622,299.511 272.930 C 296.337 285.247,297.493 297.372,302.415 303.416 C 303.031 304.172,303.535 304.906,303.535 305.047 C 303.535 305.219,292.233 305.303,269.177 305.303 C 241.760 305.303,234.856 305.239,235.003 304.987 C 235.104 304.814,235.520 304.180,235.927 303.579 C 241.077 295.975,242.076 283.518,238.480 271.723 C 237.873 269.733,232.545 254.866,219.064 217.551 C 216.053 209.217,213.004 200.763,212.287 198.763 L 210.985 195.128 210.918 203.097 L 210.852 211.067 208.898 211.884 C 205.223 213.420,200.490 215.143,196.783 216.294 C 192.360 217.667,192.976 217.092,192.419 220.373 C 191.435 226.167,191.416 227.462,191.415 286.778 L 191.414 344.642 196.149 344.831 C 235.792 346.410,257.561 339.827,270.320 322.404 C 271.548 320.727,272.417 320.259,272.290 321.345 C 272.063 323.286,265.355 373.870,265.321 373.901 C 265.297 373.922,264.451 373.783,263.440 373.590 C 255.080 372.000,248.568 371.835,197.475 371.918 C 154.921 371.987,142.118 371.852,140.346 371.314 C 140.005 371.210,140.230 370.915,141.377 369.960 C 147.259 365.065,151.780 354.873,153.704 342.172 C 154.659 335.869,154.480 223.747,153.514 222.577 C 153.388 222.424,152.063 222.229,150.569 222.143 C 93.873 218.868,57.844 171.531,65.423 110.272 C 72.054 56.667,115.045 24.243,175.126 27.531 M220.132 246.353 C 231.696 278.453,232.034 279.650,231.743 287.500 C 231.527 293.304,230.362 296.596,227.546 299.361 L 226.010 300.868 226.010 307.503 L 226.010 314.138 245.701 314.203 L 265.392 314.268 264.077 316.035 C 256.049 326.833,244.191 333.230,228.535 335.208 C 222.437 335.979,207.285 336.400,201.932 335.948 L 200.000 335.784 200.006 285.758 C 200.011 240.852,200.157 226.852,200.643 224.915 C 200.778 224.379,201.253 224.137,204.124 223.140 C 205.953 222.505,208.131 221.708,208.965 221.370 C 209.798 221.031,210.585 220.779,210.714 220.809 C 210.844 220.839,215.081 232.334,220.132 246.353 " stroke="none" fill="#0c4c6c" fill-rule="evenodd"></path><path id="path1" d="M156.818 38.786 C 140.302 40.209,130.024 43.210,118.864 49.870 C 91.510 66.193,77.505 101.085,82.477 140.530 C 89.561 196.742,139.741 225.437,193.894 204.243 C 198.395 202.481,198.730 202.185,194.815 203.431 C 176.757 209.178,153.760 209.658,136.754 204.644 C 102.842 194.645,83.099 162.356,85.102 120.172 C 86.873 82.900,104.476 56.531,134.343 46.409 C 151.527 40.585,178.207 40.331,196.962 45.813 C 199.801 46.643,199.783 46.485,196.913 45.390 C 185.124 40.893,167.007 37.909,156.818 38.786 M180.429 131.579 C 175.290 131.970,170.631 132.313,170.076 132.341 C 165.508 132.571,190.634 134.091,199.012 134.091 L 206.745 134.091 213.329 153.472 C 216.950 164.132,225.604 189.615,232.560 210.101 C 246.960 252.513,247.102 252.920,249.758 259.627 C 252.369 266.219,256.867 276.803,257.001 276.669 C 257.136 276.534,254.443 266.051,252.615 259.596 C 250.803 253.203,249.418 249.046,234.607 205.556 C 227.773 185.486,219.264 160.486,215.699 150.000 L 209.217 130.934 199.495 130.901 C 191.010 130.873,188.584 130.959,180.429 131.579 M324.171 148.927 C 322.274 153.198,320.440 157.487,320.096 158.460 C 319.753 159.432,316.520 168.920,312.913 179.545 C 309.306 190.170,301.624 212.777,295.841 229.783 C 285.479 260.256,285.299 260.822,283.310 269.019 C 282.201 273.594,281.339 277.382,281.395 277.439 C 281.451 277.495,283.101 273.929,285.062 269.515 L 288.626 261.490 305.072 213.131 C 314.117 186.534,322.021 163.295,322.636 161.490 C 323.827 157.993,328.036 141.162,327.720 141.162 C 327.666 141.162,326.069 144.656,324.171 148.927 M173.407 222.855 C 173.317 223.687,172.957 227.079,172.607 230.392 L 171.970 236.415 171.970 282.402 L 171.970 328.389 172.618 334.460 C 173.760 345.148,173.661 345.072,174.602 335.985 L 175.230 329.924 175.277 282.449 L 175.323 234.975 174.643 228.788 C 173.853 221.604,173.647 220.618,173.407 222.855 M197.222 355.844 C 196.181 356.117,194.891 356.455,194.356 356.595 C 193.091 356.928,193.103 356.935,196.483 357.824 L 199.369 358.583 219.262 358.584 L 239.155 358.586 242.313 357.795 C 244.050 357.360,245.431 356.963,245.382 356.914 C 245.332 356.864,243.993 356.482,242.406 356.065 L 239.520 355.306 219.318 355.328 C 200.099 355.348,199.024 355.373,197.222 355.844 " stroke="none" fill="#d4ae38" fill-rule="evenodd"></path><path id="path2" d="M157.702 27.795 C 109.651 31.453,76.437 57.945,67.330 99.874 C 63.635 116.887,63.724 137.488,67.562 153.283 C 77.283 193.298,108.598 218.997,151.421 222.104 L 153.726 222.271 153.880 223.397 C 154.499 227.911,154.572 235.447,154.481 285.354 C 154.394 333.030,154.344 338.301,153.958 341.139 C 152.230 353.836,148.502 362.915,142.581 368.849 L 140.278 371.157 141.540 371.311 C 146.096 371.869,161.638 371.996,191.035 371.715 C 234.935 371.295,253.574 371.723,262.908 373.364 C 264.054 373.565,265.055 373.665,265.134 373.587 C 265.398 373.323,272.211 321.100,272.008 320.897 C 271.898 320.786,271.084 321.636,270.200 322.785 C 262.061 333.363,250.057 340.312,235.178 343.060 C 226.158 344.726,219.699 345.074,199.432 344.986 L 191.162 344.949 191.162 287.979 C 191.162 228.568,191.188 226.938,192.259 220.594 L 192.803 217.375 196.465 216.243 C 200.499 214.995,206.715 212.739,209.237 211.607 L 210.859 210.880 210.873 202.725 L 210.888 194.571 212.492 198.990 C 215.158 206.334,224.637 232.585,231.685 252.146 C 239.673 274.316,239.986 275.364,240.662 282.197 C 241.437 290.022,239.544 298.540,235.825 303.960 C 235.427 304.540,235.101 305.080,235.101 305.159 C 235.101 305.238,250.442 305.303,269.192 305.303 C 304.394 305.303,304.458 305.301,303.005 304.404 C 302.853 304.310,302.183 303.398,301.518 302.378 C 296.730 295.044,296.277 282.399,300.339 269.444 C 301.362 266.180,341.648 151.561,342.987 148.106 C 347.819 135.629,354.657 125.462,361.584 120.455 C 362.832 119.552,363.862 118.728,363.872 118.624 C 363.881 118.520,351.015 118.434,335.280 118.434 L 306.671 118.434 307.626 120.403 C 310.353 126.027,310.813 133.935,308.858 141.590 C 308.569 142.722,302.877 159.936,296.210 179.842 C 279.345 230.197,276.188 241.199,271.711 265.215 C 271.187 268.021,271.125 268.182,270.553 268.182 C 270.221 268.182,269.949 268.114,269.949 268.031 C 269.949 267.381,268.213 257.796,267.412 254.022 C 263.344 234.859,258.284 218.537,244.013 178.535 C 235.456 154.552,231.465 142.557,230.916 139.177 C 229.782 132.201,231.223 123.811,234.246 119.777 C 234.577 119.335,234.848 118.852,234.848 118.704 C 234.848 118.515,227.000 118.433,208.523 118.431 C 175.668 118.426,165.551 118.151,156.649 117.020 L 155.344 116.854 155.190 117.960 C 154.726 121.312,151.062 157.708,151.171 157.885 C 151.243 158.001,151.946 157.505,152.734 156.782 C 161.341 148.887,172.611 145.039,189.859 144.104 L 191.714 144.003 192.550 145.310 C 193.495 146.788,193.690 147.228,195.580 152.146 C 196.751 155.196,205.393 178.982,205.720 180.057 C 205.990 180.943,197.078 185.990,190.783 188.516 C 172.566 195.825,151.916 195.886,136.995 188.673 C 115.139 178.108,103.663 154.869,104.369 122.601 C 105.270 81.439,126.263 57.030,161.742 55.893 C 183.613 55.192,202.151 61.938,216.224 75.720 C 217.995 77.454,219.524 78.792,219.623 78.694 C 219.721 78.595,218.921 68.832,217.844 56.997 C 216.767 45.163,215.891 35.356,215.897 35.205 C 215.919 34.706,205.996 32.091,198.264 30.558 C 185.600 28.047,169.128 26.925,157.702 27.795 M170.833 39.265 C 180.368 40.283,189.061 42.344,197.591 45.609 C 200.774 46.828,200.527 46.912,196.900 45.845 C 177.274 40.070,149.934 40.606,132.407 47.110 C 102.741 58.118,85.776 85.490,85.169 123.326 C 84.592 159.264,98.247 185.888,124.288 199.601 C 143.012 209.461,172.218 210.909,195.573 203.136 C 199.642 201.781,199.780 201.841,196.145 203.384 C 151.019 222.545,104.921 205.609,88.300 163.763 C 77.953 137.712,79.678 101.164,92.353 77.904 C 104.731 55.189,125.755 41.651,152.525 39.158 C 154.122 39.009,155.827 38.841,156.313 38.783 C 158.019 38.582,167.334 38.891,170.833 39.265 M160.804 65.085 C 161.538 65.137,162.674 65.136,163.329 65.084 C 163.984 65.032,163.384 64.991,161.995 64.991 C 160.606 64.992,160.070 65.034,160.804 65.085 M166.225 65.085 C 166.884 65.137,167.964 65.137,168.624 65.085 C 169.283 65.033,168.744 64.990,167.424 64.990 C 166.105 64.990,165.565 65.033,166.225 65.085 M130.270 76.738 C 129.100 77.833,127.593 79.396,126.922 80.210 C 125.823 81.544,125.864 81.516,127.342 79.925 C 128.245 78.953,129.820 77.393,130.843 76.458 C 131.865 75.523,132.633 74.755,132.550 74.753 C 132.466 74.750,131.440 75.643,130.270 76.738 M211.111 83.460 C 212.006 84.362,212.795 85.101,212.864 85.101 C 212.934 85.101,212.258 84.362,211.364 83.460 C 210.469 82.557,209.680 81.818,209.611 81.818 C 209.541 81.818,210.216 82.557,211.111 83.460 M169.760 109.025 C 170.559 109.075,171.866 109.075,172.664 109.025 C 173.463 108.975,172.809 108.934,171.212 108.934 C 169.615 108.934,168.961 108.975,169.760 109.025 M188.807 109.280 C 195.220 109.318,205.788 109.318,212.291 109.280 C 218.795 109.243,213.548 109.212,200.631 109.212 C 187.715 109.212,182.394 109.243,188.807 109.280 M225.189 109.276 C 225.780 109.329,226.746 109.329,227.336 109.276 C 227.926 109.223,227.443 109.179,226.263 109.179 C 225.082 109.179,224.599 109.223,225.189 109.276 M113.695 116.162 C 113.695 116.648,113.747 116.847,113.810 116.604 C 113.874 116.360,113.874 115.963,113.810 115.720 C 113.747 115.477,113.695 115.676,113.695 116.162 M113.493 124.874 C 113.493 128.207,113.529 129.536,113.573 127.826 C 113.616 126.117,113.616 123.390,113.572 121.766 C 113.528 120.142,113.493 121.540,113.493 124.874 M241.731 124.811 C 241.374 125.262,240.871 126.263,241.002 126.263 C 241.062 126.263,241.346 125.865,241.633 125.379 C 242.154 124.495,242.203 124.215,241.731 124.811 M366.787 127.819 C 365.288 129.013,363.225 131.026,362.044 132.449 C 361.467 133.144,362.130 132.564,363.516 131.161 C 364.901 129.758,366.490 128.257,367.045 127.824 C 367.601 127.391,367.996 127.033,367.924 127.029 C 367.851 127.024,367.340 127.380,366.787 127.819 M227.525 184.621 C 251.712 255.707,250.501 252.099,252.355 258.586 C 254.290 265.352,257.403 277.277,257.269 277.411 C 257.081 277.599,250.354 261.491,247.932 255.051 C 247.227 253.176,245.303 247.664,243.656 242.803 C 242.010 237.942,233.020 211.493,223.678 184.028 L 206.694 134.091 198.866 134.091 C 190.201 134.091,164.548 132.539,169.697 132.327 C 170.183 132.307,174.785 131.971,179.924 131.581 C 187.738 130.988,190.901 130.867,199.242 130.841 L 209.217 130.811 227.525 184.621 M113.700 133.712 C 113.703 134.268,113.755 134.465,113.815 134.151 C 113.875 133.837,113.873 133.382,113.810 133.141 C 113.747 132.900,113.697 133.157,113.700 133.712 M326.762 145.984 C 324.383 156.124,323.519 158.937,315.903 181.333 C 286.420 268.032,288.828 261.121,285.475 268.688 C 283.777 272.520,282.143 276.104,281.843 276.653 L 281.299 277.652 281.456 276.768 C 282.832 269.043,285.482 260.131,292.833 238.510 C 323.671 147.815,320.934 155.494,327.296 141.827 C 327.938 140.449,327.789 141.610,326.762 145.984 M298.386 144.093 C 297.999 145.280,297.727 146.296,297.782 146.351 C 297.836 146.405,298.197 145.478,298.584 144.291 C 298.970 143.103,299.242 142.087,299.188 142.033 C 299.134 141.979,298.773 142.906,298.386 144.093 M160.978 161.710 C 159.871 162.595,158.453 163.871,157.828 164.546 C 157.008 165.431,157.184 165.313,158.460 164.120 C 159.432 163.212,160.881 161.979,161.679 161.381 C 162.961 160.421,163.306 160.101,163.061 160.101 C 163.023 160.101,162.086 160.825,160.978 161.710 M129.167 172.475 C 130.131 173.447,130.978 174.242,131.047 174.242 C 131.117 174.242,130.384 173.447,129.419 172.475 C 128.454 171.503,127.608 170.707,127.539 170.707 C 127.469 170.707,128.202 171.503,129.167 172.475 M158.153 184.783 C 158.957 184.833,160.207 184.833,160.931 184.782 C 161.655 184.731,160.997 184.690,159.470 184.690 C 157.942 184.691,157.349 184.733,158.153 184.783 M164.339 184.782 C 165.073 184.834,166.209 184.833,166.865 184.781 C 167.520 184.729,166.919 184.688,165.530 184.688 C 164.141 184.689,163.605 184.731,164.339 184.782 M173.993 223.016 C 174.117 223.899,174.508 227.390,174.862 230.774 L 175.505 236.926 175.505 282.403 L 175.505 327.880 174.739 335.215 C 173.902 343.226,173.665 344.437,173.405 342.036 C 173.315 341.208,172.956 337.860,172.606 334.596 L 171.970 328.662 171.970 282.323 L 171.970 235.985 172.606 230.051 C 172.956 226.787,173.313 223.460,173.400 222.659 C 173.593 220.877,173.702 220.943,173.993 223.016 M200.417 228.950 C 200.327 230.432,200.276 252.223,200.305 277.375 L 200.357 323.106 200.496 274.747 C 200.573 248.150,200.624 226.359,200.609 226.322 C 200.594 226.286,200.508 227.468,200.417 228.950 M145.326 288.636 C 145.326 313.845,145.355 324.157,145.391 311.553 C 145.428 298.949,145.428 278.324,145.391 265.720 C 145.355 253.116,145.326 263.428,145.326 288.636 M224.892 260.606 C 224.985 260.953,225.166 261.408,225.295 261.616 C 225.458 261.879,225.478 261.802,225.360 261.364 C 225.267 261.016,225.086 260.562,224.957 260.354 C 224.795 260.090,224.775 260.167,224.892 260.606 M225.820 263.194 C 225.884 263.368,226.135 264.114,226.378 264.852 C 226.621 265.590,226.864 266.150,226.918 266.096 C 227.046 265.967,226.005 262.879,225.834 262.879 C 225.762 262.879,225.756 263.021,225.820 263.194 M227.149 266.919 C 227.663 268.613,229.770 274.331,229.783 274.068 C 229.801 273.699,227.332 266.638,227.114 266.434 C 227.028 266.354,227.044 266.572,227.149 266.919 M231.372 282.576 C 231.372 283.062,231.424 283.261,231.487 283.018 C 231.551 282.775,231.551 282.377,231.487 282.134 C 231.424 281.891,231.372 282.090,231.372 282.576 M306.659 286.364 C 306.659 287.822,306.701 288.419,306.752 287.689 C 306.803 286.960,306.803 285.767,306.752 285.038 C 306.701 284.309,306.659 284.905,306.659 286.364 M231.644 286.237 C 231.645 287.071,231.692 287.381,231.749 286.927 C 231.805 286.473,231.804 285.792,231.746 285.412 C 231.688 285.033,231.642 285.404,231.644 286.237 M229.417 296.408 C 229.006 297.193,228.000 298.578,227.181 299.486 L 225.693 301.136 227.360 299.437 C 228.781 297.987,230.529 295.344,230.251 295.066 C 230.203 295.018,229.828 295.622,229.417 296.408 M290.849 314.320 C 291.163 314.380,291.618 314.378,291.859 314.315 C 292.100 314.252,291.843 314.202,291.288 314.205 C 290.732 314.208,290.535 314.260,290.849 314.320 M273.990 314.491 C 273.990 314.716,274.921 314.806,275.383 314.625 C 275.764 314.476,275.658 314.425,274.937 314.412 C 274.416 314.402,273.990 314.438,273.990 314.491 M259.217 321.034 C 257.071 323.208,256.561 323.808,257.746 322.766 C 259.234 321.457,262.877 317.636,262.582 317.693 C 262.537 317.701,261.023 319.205,259.217 321.034 M247.475 329.545 C 246.711 329.949,246.175 330.285,246.284 330.291 C 246.552 330.307,248.990 329.063,248.990 328.910 C 248.990 328.741,249.025 328.726,247.475 329.545 M145.034 336.616 C 145.034 337.658,145.079 338.084,145.133 337.563 C 145.188 337.042,145.188 336.190,145.133 335.669 C 145.079 335.148,145.034 335.574,145.034 336.616 M222.669 335.537 C 223.123 335.593,223.804 335.592,224.184 335.534 C 224.563 335.476,224.192 335.430,223.359 335.432 C 222.525 335.433,222.215 335.480,222.669 335.537 M209.927 335.795 C 211.984 335.837,215.280 335.837,217.250 335.795 C 219.221 335.752,217.538 335.717,213.510 335.718 C 209.482 335.718,207.870 335.753,209.927 335.795 M241.540 355.819 C 244.882 356.661,245.510 356.846,245.399 356.958 C 245.340 357.017,243.993 357.406,242.406 357.824 L 239.520 358.583 219.444 358.579 L 199.369 358.575 196.508 357.845 C 193.055 356.964,193.032 356.947,194.733 356.465 C 198.841 355.301,197.794 355.350,219.192 355.330 C 238.766 355.311,239.595 355.330,241.540 355.819 M135.606 362.913 L 134.470 363.942 135.539 363.140 C 136.470 362.441,137.067 361.852,136.820 361.876 C 136.778 361.880,136.231 362.347,135.606 362.913 M180.748 380.734 C 181.062 380.795,181.517 380.792,181.758 380.729 C 181.999 380.666,181.742 380.616,181.187 380.619 C 180.631 380.622,180.434 380.674,180.748 380.734 M194.508 380.745 C 200.723 380.783,210.893 380.783,217.109 380.745 C 223.324 380.707,218.239 380.676,205.808 380.676 C 193.378 380.676,188.292 380.707,194.508 380.745 M238.194 380.989 C 238.576 381.047,239.201 381.047,239.583 380.989 C 239.965 380.931,239.653 380.884,238.889 380.884 C 238.125 380.884,237.813 380.931,238.194 380.989 " stroke="none" fill="#fbfbfb" fill-rule="evenodd"></path><path id="path3" d="M157.134 18.861 C 157.377 18.924,157.775 18.924,158.018 18.861 C 158.261 18.797,158.062 18.745,157.576 18.745 C 157.090 18.745,156.891 18.797,157.134 18.861 M171.910 18.865 C 172.224 18.926,172.678 18.924,172.920 18.860 C 173.161 18.797,172.904 18.748,172.348 18.751 C 171.793 18.753,171.595 18.805,171.910 18.865 M86.727 46.780 L 85.985 47.601 86.806 46.859 C 87.257 46.451,87.626 46.082,87.626 46.039 C 87.626 45.844,87.418 46.015,86.727 46.780 M83.448 50.063 L 82.449 51.136 83.523 50.138 C 84.521 49.210,84.712 48.990,84.521 48.990 C 84.480 48.990,83.997 49.473,83.448 50.063 M159.912 55.982 C 160.155 56.046,160.552 56.046,160.795 55.982 C 161.039 55.919,160.840 55.867,160.354 55.867 C 159.867 55.867,159.669 55.919,159.912 55.982 M167.617 55.987 C 167.931 56.047,168.385 56.045,168.627 55.982 C 168.868 55.918,168.611 55.869,168.056 55.872 C 167.500 55.875,167.302 55.926,167.617 55.987 M122.727 71.338 C 122.114 71.963,121.669 72.475,121.738 72.475 C 121.808 72.475,122.366 71.963,122.980 71.338 C 123.593 70.713,124.038 70.202,123.969 70.202 C 123.899 70.202,123.341 70.713,122.727 71.338 M174.558 109.275 C 175.079 109.329,175.931 109.329,176.452 109.275 C 176.973 109.220,176.547 109.176,175.505 109.176 C 174.463 109.176,174.037 109.220,174.558 109.275 M169.637 118.108 C 169.951 118.168,170.405 118.166,170.647 118.103 C 170.888 118.040,170.631 117.990,170.076 117.993 C 169.520 117.996,169.323 118.047,169.637 118.108 M206.804 118.371 C 228.730 118.423,234.737 118.504,234.894 118.751 C 235.035 118.975,235.094 118.938,235.097 118.624 C 235.101 118.205,233.620 118.185,207.008 118.244 L 178.914 118.306 206.804 118.371 M316.793 118.368 C 344.073 118.541,364.082 118.543,363.976 118.371 C 363.912 118.267,350.940 118.209,335.149 118.242 C 319.359 118.275,311.098 118.332,316.793 118.368 M104.352 119.697 C 104.352 120.183,104.403 120.382,104.467 120.139 C 104.531 119.896,104.531 119.498,104.467 119.255 C 104.403 119.012,104.352 119.211,104.352 119.697 M84.942 125.758 C 84.942 127.216,84.984 127.813,85.035 127.083 C 85.086 126.354,85.086 125.161,85.035 124.432 C 84.984 123.703,84.942 124.299,84.942 125.758 M64.491 126.768 C 64.491 128.504,64.532 129.214,64.581 128.346 C 64.630 127.478,64.630 126.057,64.581 125.189 C 64.532 124.321,64.491 125.032,64.491 126.768 M104.357 130.682 C 104.359 131.237,104.411 131.435,104.472 131.121 C 104.532 130.807,104.530 130.352,104.466 130.111 C 104.403 129.869,104.354 130.126,104.357 130.682 M301.086 131.313 C 301.086 132.077,301.133 132.390,301.191 132.008 C 301.249 131.626,301.249 131.001,301.191 130.619 C 301.133 130.237,301.086 130.549,301.086 131.313 M239.466 133.965 C 239.468 134.659,239.517 134.913,239.575 134.529 C 239.633 134.146,239.632 133.577,239.572 133.267 C 239.512 132.956,239.464 133.270,239.466 133.965 M152.387 157.134 L 151.389 158.207 152.462 157.209 C 153.052 156.660,153.535 156.177,153.535 156.136 C 153.535 155.945,153.315 156.136,152.387 157.134 M154.532 167.866 L 153.662 168.813 154.609 167.943 C 155.490 167.133,155.672 166.919,155.479 166.919 C 155.437 166.919,155.010 167.345,154.532 167.866 M121.212 177.099 C 121.212 177.143,121.581 177.512,122.033 177.920 L 122.854 178.662 122.112 177.841 C 121.420 177.076,121.212 176.904,121.212 177.099 M123.232 179.119 C 123.232 179.163,123.602 179.532,124.053 179.940 L 124.874 180.682 124.132 179.861 C 123.441 179.096,123.232 178.924,123.232 179.119 M107.565 187.437 C 108.612 188.552,108.838 188.752,108.838 188.563 C 108.838 188.522,108.299 187.982,107.639 187.363 L 106.439 186.237 107.565 187.437 M105.177 189.899 C 105.861 190.593,106.477 191.162,106.547 191.162 C 106.616 191.162,106.113 190.593,105.429 189.899 C 104.745 189.205,104.129 188.636,104.059 188.636 C 103.990 188.636,104.493 189.205,105.177 189.899 M89.520 194.697 C 90.063 195.253,90.563 195.707,90.633 195.707 C 90.702 195.707,90.315 195.253,89.773 194.697 C 89.230 194.141,88.730 193.687,88.660 193.687 C 88.591 193.687,88.978 194.141,89.520 194.697 M91.909 197.033 C 92.955 198.148,93.182 198.348,93.182 198.159 C 93.182 198.118,92.642 197.578,91.982 196.959 L 90.783 195.833 91.909 197.033 M191.230 230.556 C 191.230 231.181,191.280 231.436,191.340 231.124 C 191.400 230.811,191.400 230.300,191.340 229.987 C 191.280 229.675,191.230 229.931,191.230 230.556 M154.417 282.197 C 154.417 310.808,154.446 322.475,154.482 308.124 C 154.518 293.772,154.518 270.363,154.482 256.104 C 154.446 241.844,154.417 253.586,154.417 282.197 M175.376 289.015 C 175.376 311.098,175.406 320.095,175.442 309.008 C 175.478 297.921,175.478 279.852,175.442 268.856 C 175.405 257.860,175.376 266.932,175.376 289.015 M240.748 285.859 C 240.748 287.178,240.790 287.718,240.842 287.058 C 240.894 286.398,240.894 285.319,240.842 284.659 C 240.790 283.999,240.748 284.539,240.748 285.859 M297.538 284.470 C 297.541 285.025,297.593 285.223,297.653 284.909 C 297.714 284.595,297.711 284.140,297.648 283.899 C 297.585 283.657,297.536 283.914,297.538 284.470 M297.533 288.384 C 297.533 288.870,297.585 289.069,297.649 288.826 C 297.712 288.583,297.712 288.185,297.649 287.942 C 297.585 287.699,297.533 287.898,297.533 288.384 M310.354 299.116 C 310.825 299.602,311.267 300.000,311.336 300.000 C 311.406 300.000,311.077 299.602,310.606 299.116 C 310.135 298.630,309.693 298.232,309.623 298.232 C 309.554 298.232,309.882 298.630,310.354 299.116 M235.814 314.331 C 241.276 314.369,250.140 314.369,255.511 314.331 C 260.883 314.293,256.414 314.262,245.581 314.262 C 234.747 314.262,230.353 314.293,235.814 314.331 M281.376 314.329 C 282.453 314.376,284.214 314.376,285.290 314.329 C 286.367 314.282,285.486 314.243,283.333 314.243 C 281.181 314.243,280.300 314.282,281.376 314.329 M145.261 335.101 C 145.261 335.587,145.313 335.786,145.376 335.543 C 145.440 335.300,145.440 334.902,145.376 334.659 C 145.313 334.416,145.261 334.615,145.261 335.101 M218.245 344.871 C 218.488 344.935,218.886 344.935,219.129 344.871 C 219.372 344.808,219.173 344.756,218.687 344.756 C 218.201 344.756,218.002 344.808,218.245 344.871 M208.021 345.128 C 208.335 345.188,208.789 345.186,209.031 345.123 C 209.272 345.060,209.015 345.010,208.460 345.013 C 207.904 345.016,207.707 345.068,208.021 345.128 M212.184 371.654 C 215.622 371.694,221.247 371.694,224.684 371.654 C 228.122 371.614,225.309 371.582,218.434 371.582 C 211.559 371.582,208.747 371.614,212.184 371.654 M152.469 371.902 C 153.063 371.956,153.972 371.955,154.489 371.901 C 155.006 371.846,154.520 371.803,153.409 371.804 C 152.298 371.805,151.875 371.849,152.469 371.902 M179.482 371.905 C 180.628 371.952,182.503 371.952,183.649 371.905 C 184.795 371.858,183.857 371.820,181.566 371.820 C 179.274 371.820,178.336 371.858,179.482 371.905 M241.481 371.898 C 241.865 371.956,242.433 371.955,242.743 371.895 C 243.054 371.835,242.740 371.788,242.045 371.789 C 241.351 371.791,241.097 371.840,241.481 371.898 M248.295 372.144 C 248.539 372.207,248.936 372.207,249.179 372.144 C 249.422 372.080,249.223 372.028,248.737 372.028 C 248.251 372.028,248.052 372.080,248.295 372.144 M173.295 380.743 C 174.372 380.791,176.133 380.791,177.210 380.743 C 178.286 380.696,177.405 380.657,175.253 380.657 C 173.100 380.657,172.219 380.696,173.295 380.743 M229.742 380.741 C 230.335 380.794,231.245 380.793,231.762 380.739 C 232.279 380.685,231.793 380.641,230.682 380.642 C 229.571 380.643,229.148 380.687,229.742 380.741 M240.723 380.989 C 241.107 381.047,241.675 381.046,241.986 380.986 C 242.296 380.926,241.982 380.878,241.288 380.880 C 240.593 380.882,240.339 380.931,240.723 380.989 M247.285 381.235 C 247.528 381.298,247.926 381.298,248.169 381.235 C 248.412 381.171,248.213 381.119,247.727 381.119 C 247.241 381.119,247.042 381.171,247.285 381.235 " stroke="none" fill="#9bb6c3" fill-rule="evenodd"></path><path id="path4" d="M158.905 18.868 C 159.289 18.926,159.857 18.925,160.168 18.865 C 160.478 18.805,160.164 18.757,159.470 18.759 C 158.775 18.761,158.521 18.810,158.905 18.868 M169.764 18.868 C 170.147 18.926,170.716 18.925,171.026 18.865 C 171.337 18.805,171.023 18.757,170.328 18.759 C 169.634 18.761,169.380 18.810,169.764 18.868 M175.821 19.113 C 176.064 19.177,176.461 19.177,176.705 19.113 C 176.948 19.050,176.749 18.998,176.263 18.998 C 175.777 18.998,175.578 19.050,175.821 19.113 M165.454 27.461 C 166.663 27.507,168.708 27.507,170.000 27.461 C 171.292 27.415,170.303 27.377,167.803 27.377 C 165.303 27.377,164.246 27.414,165.454 27.461 M85.211 48.295 L 84.470 49.116 85.290 48.374 C 85.742 47.967,86.111 47.597,86.111 47.554 C 86.111 47.359,85.903 47.530,85.211 48.295 M90.651 55.745 L 88.510 57.955 90.720 55.814 C 91.935 54.636,92.929 53.642,92.929 53.604 C 92.929 53.420,92.639 53.693,90.651 55.745 M162.563 55.995 C 163.431 56.044,164.852 56.044,165.720 55.995 C 166.588 55.946,165.878 55.905,164.141 55.905 C 162.405 55.905,161.695 55.946,162.563 55.995 M163.329 64.833 C 164.063 64.884,165.199 64.884,165.854 64.832 C 166.509 64.780,165.909 64.738,164.520 64.739 C 163.131 64.739,162.595 64.782,163.329 64.833 M128.779 77.967 L 127.399 79.419 128.851 78.039 C 130.200 76.757,130.419 76.515,130.231 76.515 C 130.192 76.515,129.538 77.169,128.779 77.967 M171.780 109.272 C 172.162 109.330,172.787 109.330,173.169 109.272 C 173.551 109.214,173.239 109.167,172.475 109.167 C 171.711 109.167,171.398 109.214,171.780 109.272 M171.531 118.111 C 171.915 118.169,172.483 118.167,172.794 118.107 C 173.104 118.047,172.790 118.000,172.096 118.002 C 171.402 118.003,171.147 118.052,171.531 118.111 M104.379 122.348 C 104.380 123.460,104.425 123.883,104.478 123.289 C 104.532 122.695,104.531 121.786,104.476 121.269 C 104.422 120.751,104.379 121.237,104.379 122.348 M55.628 122.348 C 55.630 123.043,55.679 123.297,55.737 122.913 C 55.795 122.529,55.793 121.961,55.733 121.651 C 55.673 121.340,55.626 121.654,55.628 122.348 M64.470 122.475 C 64.470 123.239,64.517 123.551,64.575 123.169 C 64.633 122.787,64.633 122.162,64.575 121.780 C 64.517 121.398,64.470 121.711,64.470 122.475 M113.230 125.000 C 113.230 126.875,113.270 127.642,113.319 126.705 C 113.367 125.767,113.367 124.233,113.319 123.295 C 113.270 122.358,113.230 123.125,113.230 125.000 M357.562 123.927 L 356.692 124.874 357.639 124.003 C 358.160 123.525,358.586 123.099,358.586 123.057 C 358.586 122.864,358.372 123.045,357.562 123.927 M104.371 128.409 C 104.373 129.242,104.420 129.553,104.476 129.099 C 104.532 128.645,104.531 127.963,104.473 127.584 C 104.416 127.204,104.370 127.576,104.371 128.409 M363.880 130.240 L 362.500 131.692 363.952 130.312 C 364.751 129.553,365.404 128.899,365.404 128.860 C 365.404 128.672,365.163 128.891,363.880 130.240 M64.470 131.061 C 64.470 131.824,64.517 132.137,64.575 131.755 C 64.633 131.373,64.633 130.748,64.575 130.366 C 64.517 129.984,64.470 130.297,64.470 131.061 M309.927 132.197 C 309.928 133.030,309.975 133.341,310.031 132.887 C 310.088 132.433,310.087 131.751,310.029 131.372 C 309.971 130.992,309.925 131.364,309.927 132.197 M55.628 132.197 C 55.630 132.891,55.679 133.146,55.737 132.762 C 55.795 132.378,55.793 131.810,55.733 131.499 C 55.673 131.188,55.626 131.503,55.628 132.197 M158.081 164.015 C 157.467 164.640,157.022 165.152,157.092 165.152 C 157.161 165.152,157.720 164.640,158.333 164.015 C 158.947 163.390,159.392 162.879,159.322 162.879 C 159.253 162.879,158.694 163.390,158.081 164.015 M129.040 172.601 C 129.512 173.087,129.954 173.485,130.023 173.485 C 130.093 173.485,129.764 173.087,129.293 172.601 C 128.822 172.115,128.379 171.717,128.310 171.717 C 128.241 171.717,128.569 172.115,129.040 172.601 M159.794 185.035 C 160.528 185.086,161.664 185.086,162.319 185.034 C 162.974 184.982,162.374 184.940,160.985 184.941 C 159.596 184.941,159.060 184.984,159.794 185.035 M164.836 185.027 C 165.148 185.087,165.660 185.087,165.972 185.027 C 166.285 184.967,166.029 184.917,165.404 184.917 C 164.779 184.917,164.523 184.967,164.836 185.027 M83.081 200.884 C 83.552 201.370,83.994 201.768,84.064 201.768 C 84.133 201.768,83.804 201.370,83.333 200.884 C 82.862 200.398,82.420 200.000,82.350 200.000 C 82.281 200.000,82.610 200.398,83.081 200.884 M86.237 204.040 C 86.780 204.596,87.281 205.051,87.350 205.051 C 87.419 205.051,87.032 204.596,86.490 204.040 C 85.947 203.485,85.447 203.030,85.377 203.030 C 85.308 203.030,85.695 203.485,86.237 204.040 M191.287 288.131 L 191.288 344.823 193.561 344.837 L 195.833 344.852 193.624 344.765 L 191.415 344.678 191.351 288.059 L 191.286 231.439 191.287 288.131 M200.124 284.848 C 200.124 312.973,200.153 324.479,200.189 310.417 C 200.225 296.354,200.225 273.343,200.189 259.280 C 200.153 245.218,200.124 256.723,200.124 284.848 M297.547 286.490 C 297.549 287.184,297.598 287.438,297.656 287.055 C 297.714 286.671,297.712 286.103,297.653 285.792 C 297.593 285.481,297.545 285.795,297.547 286.490 M225.868 307.576 C 225.868 311.256,225.903 312.762,225.946 310.922 C 225.989 309.081,225.989 306.070,225.946 304.230 C 225.903 302.390,225.868 303.895,225.868 307.576 M274.821 314.329 C 275.764 314.378,277.242 314.377,278.104 314.328 C 278.966 314.279,278.194 314.239,276.389 314.240 C 274.583 314.240,273.878 314.280,274.821 314.329 M265.522 327.841 L 264.015 329.419 265.593 327.912 C 267.060 326.512,267.287 326.263,267.101 326.263 C 267.062 326.263,266.351 326.973,265.522 327.841 M206.250 336.047 C 208.368 336.090,211.834 336.090,213.952 336.047 C 216.070 336.005,214.337 335.971,210.101 335.971 C 205.865 335.971,204.132 336.005,206.250 336.047 M216.351 344.875 C 216.664 344.935,217.175 344.935,217.487 344.875 C 217.800 344.815,217.544 344.766,216.919 344.766 C 216.294 344.766,216.039 344.815,216.351 344.875 M130.928 373.674 L 130.934 380.682 131.944 380.703 L 132.955 380.725 132.012 380.626 L 131.069 380.527 130.995 373.597 L 130.922 366.666 130.928 373.674 M149.436 371.900 C 149.890 371.956,150.572 371.955,150.951 371.898 C 151.331 371.840,150.960 371.794,150.126 371.795 C 149.293 371.797,148.982 371.844,149.436 371.900 M187.437 371.905 C 188.513 371.952,190.275 371.952,191.351 371.905 C 192.427 371.858,191.547 371.819,189.394 371.819 C 187.241 371.819,186.360 371.858,187.437 371.905 M238.573 371.900 C 239.025 371.956,239.763 371.956,240.215 371.900 C 240.666 371.844,240.297 371.798,239.394 371.798 C 238.491 371.798,238.122 371.844,238.573 371.900 M246.780 372.144 C 247.023 372.207,247.421 372.207,247.664 372.144 C 247.907 372.080,247.708 372.028,247.222 372.028 C 246.736 372.028,246.537 372.080,246.780 372.144 M202.731 380.492 C 205.275 380.533,209.366 380.533,211.822 380.492 C 214.278 380.451,212.197 380.417,207.197 380.417 C 202.197 380.417,200.187 380.451,202.731 380.492 M165.605 380.744 C 166.758 380.791,168.576 380.790,169.646 380.743 C 170.716 380.696,169.773 380.657,167.551 380.658 C 165.328 380.658,164.453 380.697,165.605 380.744 M233.396 380.740 C 233.917 380.794,234.770 380.794,235.290 380.740 C 235.811 380.685,235.385 380.640,234.343 380.640 C 233.302 380.640,232.876 380.685,233.396 380.740 M242.869 380.987 C 243.183 381.047,243.638 381.045,243.879 380.982 C 244.121 380.918,243.864 380.869,243.308 380.872 C 242.753 380.875,242.555 380.926,242.869 380.987 " stroke="none" fill="#7399ac" fill-rule="evenodd"></path></g></svg>