<?xml version="1.0" standalone="no"?>
<!DOCTYPE svg PUBLIC "-//W3C//DTD SVG 20010904//EN"
 "http://www.w3.org/TR/2001/REC-SVG-20010904/DTD/svg10.dtd">
<svg version="1.0" xmlns="http://www.w3.org/2000/svg"
 width="974.000000pt" height="974.000000pt" viewBox="0 0 974.000000 974.000000"
 preserveAspectRatio="xMidYMid meet">
<metadata>
Created by potrace 1.14, written by Peter Selinger 2001-2017
</metadata>
<g transform="translate(0.000000,974.000000) scale(0.100000,-0.100000)"
fill="#000000" stroke="none">
<path d="M10 4870 l0 -4850 4865 0 4865 0 0 4850 0 4850 -4865 0 -4865 0 0
-4850z m3025 2672 c475 -6 523 -9 557 -25 50 -25 69 -49 78 -97 7 -36 4 -47
-24 -88 -37 -56 -76 -79 -159 -98 -82 -19 -141 -53 -145 -83 -5 -36 12 -93
110 -354 49 -130 102 -277 118 -326 16 -48 60 -151 97 -227 105 -212 149 -320
171 -425 12 -55 52 -175 95 -285 41 -104 78 -205 81 -224 4 -19 22 -69 41
-110 19 -41 46 -106 61 -145 48 -125 134 -299 144 -289 5 5 75 171 155 369 81
198 167 406 191 463 25 56 42 106 40 111 -3 4 37 94 89 198 66 133 102 219
118 284 34 132 90 279 144 379 25 47 73 136 106 198 l59 113 -4 115 c-4 140
-7 144 -133 174 -147 36 -173 48 -201 89 -14 22 -27 60 -31 89 -8 67 11 96 85
130 l57 27 565 2 565 3 33 -45 c29 -40 32 -50 32 -118 0 -60 -4 -77 -19 -91
-24 -21 -162 -75 -218 -85 -42 -8 -182 -92 -221 -134 -11 -12 -59 -112 -105
-222 -74 -176 -131 -296 -198 -415 -29 -52 -81 -171 -124 -285 -85 -225 -493
-1233 -570 -1410 -46 -104 -122 -271 -170 -370 -48 -99 -100 -209 -115 -245
-15 -36 -60 -132 -101 -214 -83 -166 -93 -176 -188 -176 -84 0 -95 9 -150 119
-106 211 -195 413 -256 581 -117 321 -162 434 -247 615 -121 257 -170 384
-228 600 -28 105 -75 249 -105 320 -29 72 -95 240 -145 374 -161 428 -289 689
-389 794 -44 47 -141 97 -260 136 -48 16 -100 37 -115 46 -77 50 -75 179 3
234 44 32 97 41 206 35 55 -3 334 -9 620 -12z m2827 -1542 c39 -11 128 -100
128 -127 0 -8 -18 -40 -39 -72 l-40 -58 -123 -6 c-68 -4 -140 -11 -160 -17
-116 -33 -163 -210 -160 -610 0 -124 3 -675 5 -1225 4 -962 5 -1004 25 -1098
21 -100 57 -179 92 -197 39 -21 224 -31 510 -28 l295 3 70 29 c169 69 318 185
413 321 23 33 63 87 88 120 51 67 104 174 123 248 18 73 97 223 143 273 59 64
91 78 170 75 40 -2 84 -44 119 -117 29 -59 31 -69 26 -136 -5 -67 -74 -347
-161 -653 -19 -66 -44 -165 -56 -220 -29 -134 -63 -207 -117 -255 -87 -77 -67
-74 -723 -78 -340 -2 -671 2 -790 8 -384 20 -570 23 -680 10 -110 -12 -428
-15 -542 -4 l-66 6 -36 101 -36 101 55 56 55 56 90 11 c106 14 188 48 219 91
31 44 39 100 51 378 6 137 12 260 15 274 3 14 7 303 10 643 l5 619 297 736
c163 406 301 743 307 751 9 11 44 13 196 8 102 -3 202 -11 222 -17z"/>
</g>
</svg>
